<svg width="512" height="512" viewBox="0 0 512 512" fill="none" xmlns="http://www.w3.org/2000/svg">
  <rect width="512" height="512" rx="120" fill="#07111E"/>
  <rect x="20" y="20" width="472" height="472" rx="104" fill="url(#bg)" stroke="#29435C" stroke-width="4"/>

  <circle cx="116" cy="108" r="92" fill="#D7E4F0" fill-opacity="0.10"/>
  <circle cx="398" cy="122" r="96" fill="#D7E4F0" fill-opacity="0.08"/>
  <circle cx="396" cy="396" r="112" fill="#D7E4F0" fill-opacity="0.08"/>

  <path d="M92 122L68 146L92 170" stroke="#CAD8E6" stroke-width="12" stroke-linecap="round" stroke-linejoin="round" opacity="0.85"/>
  <path d="M420 122L444 146L420 170" stroke="#CAD8E6" stroke-width="12" stroke-linecap="round" stroke-linejoin="round" opacity="0.85"/>

  <path d="M138 360V160" stroke="#E8F5FF" stroke-width="28" stroke-linecap="round"/>
  <path d="M220 360V160" stroke="#E8F5FF" stroke-width="28" stroke-linecap="round"/>
  <path d="M138 258H220" stroke="#CAD8E6" stroke-width="24" stroke-linecap="round"/>

  <path d="M286 360V160" stroke="#E8F5FF" stroke-width="28" stroke-linecap="round"/>
  <path d="M286 160H346C383.555 160 414 190.445 414 228C414 265.555 383.555 296 346 296H286" stroke="#CAD8E6" stroke-width="24" stroke-linecap="round" stroke-linejoin="round"/>
  <path d="M336 292L412 360" stroke="#CAD8E6" stroke-width="24" stroke-linecap="round"/>

  <circle cx="138" cy="160" r="12" fill="#CAD8E6"/>
  <circle cx="220" cy="258" r="12" fill="#CAD8E6"/>
  <circle cx="346" cy="160" r="12" fill="#CAD8E6"/>
  <circle cx="414" cy="228" r="12" fill="#CAD8E6"/>
  <circle cx="412" cy="360" r="12" fill="#CAD8E6"/>

  <rect x="144" y="396" width="224" height="18" rx="9" fill="#22384D"/>
  <rect x="186" y="428" width="140" height="14" rx="7" fill="#182839"/>

  <defs>
    <linearGradient id="bg" x1="48" y1="44" x2="456" y2="464" gradientUnits="userSpaceOnUse">
      <stop stop-color="#0D1B2A"/>
      <stop offset="0.5" stop-color="#10243A"/>
      <stop offset="1" stop-color="#0B1624"/>
    </linearGradient>
  </defs>
</svg>