<svg width="512" height="512" viewBox="0 0 512 512" fill="none" xmlns="http://www.w3.org/2000/svg">
  <rect width="512" height="512" rx="120" fill="#07111E"/>
  <rect x="20" y="20" width="472" height="472" rx="104" fill="url(#bg)" stroke="#29435C" stroke-width="4"/>
  <circle cx="120" cy="102" r="88" fill="#24C8DB" fill-opacity="0.12"/>
  <circle cx="416" cy="390" r="112" fill="#F59E0B" fill-opacity="0.10"/>
  <circle cx="368" cy="122" r="94" fill="#10B981" fill-opacity="0.10"/>

  <path d="M122 357L180 167L256 280L332 167L390 357" stroke="#E6F4FF" stroke-width="30" stroke-linecap="round" stroke-linejoin="round"/>
  <path d="M122 357L180 167" stroke="#24C8DB" stroke-width="18" stroke-linecap="round"/>
  <path d="M180 167L256 280" stroke="#10B981" stroke-width="18" stroke-linecap="round"/>
  <path d="M256 280L332 167" stroke="#F59E0B" stroke-width="18" stroke-linecap="round"/>
  <path d="M332 167L390 357" stroke="#24C8DB" stroke-width="18" stroke-linecap="round"/>

  <circle cx="122" cy="357" r="24" fill="#07111E" stroke="#24C8DB" stroke-width="10"/>
  <circle cx="180" cy="167" r="24" fill="#07111E" stroke="#24C8DB" stroke-width="10"/>
  <circle cx="256" cy="280" r="24" fill="#07111E" stroke="#10B981" stroke-width="10"/>
  <circle cx="332" cy="167" r="24" fill="#07111E" stroke="#F59E0B" stroke-width="10"/>
  <circle cx="390" cy="357" r="24" fill="#07111E" stroke="#F59E0B" stroke-width="10"/>

  <path d="M86 121L64 145L86 169" stroke="#7CD9E6" stroke-width="12" stroke-linecap="round" stroke-linejoin="round" opacity="0.8"/>
  <path d="M426 121L448 145L426 169" stroke="#F7CF7D" stroke-width="12" stroke-linecap="round" stroke-linejoin="round" opacity="0.8"/>

  <rect x="132" y="398" width="248" height="18" rx="9" fill="#16314C"/>
  <rect x="174" y="430" width="164" height="14" rx="7" fill="#10253B"/>

  <defs>
    <linearGradient id="bg" x1="48" y1="44" x2="456" y2="464" gradientUnits="userSpaceOnUse">
      <stop stop-color="#0D1B2A"/>
      <stop offset="0.52" stop-color="#10243A"/>
      <stop offset="1" stop-color="#0B1624"/>
    </linearGradient>
  </defs>
</svg>